<svg width="309" height="73" viewBox="0 0 309 73" fill="none" xmlns="http://www.w3.org/2000/svg">
<path d="M99.4538 60.0469H95.299L107.316 27.3196H111.407L123.424 60.0469H119.269L109.489 32.4972H109.234L99.4538 60.0469ZM100.988 47.2628H117.735V50.7784H100.988V47.2628ZM132.485 27.3196V60.0469H128.522V27.3196H132.485ZM140.431 60.0469V27.3196H144.394V56.5312H159.607V60.0469H140.431ZM190.804 37.5469H186.841C186.607 36.407 186.197 35.4055 185.611 34.5426C185.035 33.6797 184.332 32.9553 183.501 32.3693C182.681 31.7727 181.77 31.3253 180.769 31.027C179.767 30.7287 178.723 30.5795 177.637 30.5795C175.655 30.5795 173.86 31.0803 172.251 32.0817C170.653 33.0831 169.38 34.5586 168.432 36.5082C167.494 38.4577 167.026 40.8494 167.026 43.6832C167.026 46.517 167.494 48.9087 168.432 50.8583C169.38 52.8079 170.653 54.2834 172.251 55.2848C173.86 56.2862 175.655 56.7869 177.637 56.7869C178.723 56.7869 179.767 56.6378 180.769 56.3395C181.77 56.0412 182.681 55.5991 183.501 55.0131C184.332 54.4165 185.035 53.6868 185.611 52.8239C186.197 51.9503 186.607 50.9489 186.841 49.8196H190.804C190.506 51.4922 189.963 52.989 189.174 54.31C188.386 55.631 187.406 56.755 186.234 57.6818C185.062 58.598 183.746 59.2958 182.287 59.7752C180.838 60.2546 179.288 60.4943 177.637 60.4943C174.845 60.4943 172.363 59.8125 170.19 58.4489C168.017 57.0852 166.307 55.1463 165.06 52.6321C163.814 50.1179 163.191 47.1349 163.191 43.6832C163.191 40.2315 163.814 37.2486 165.06 34.7344C166.307 32.2202 168.017 30.2812 170.19 28.9176C172.363 27.554 174.845 26.8722 177.637 26.8722C179.288 26.8722 180.838 27.1119 182.287 27.5913C183.746 28.0707 185.062 28.7738 186.234 29.7006C187.406 30.6168 188.386 31.7354 189.174 33.0565C189.963 34.3668 190.506 35.8636 190.804 37.5469ZM197.208 60.0469V27.3196H208.266C210.823 27.3196 212.922 27.7564 214.563 28.63C216.203 29.4929 217.418 30.6808 218.206 32.1935C218.994 33.7063 219.389 35.4268 219.389 37.3551C219.389 39.2834 218.994 40.9933 218.206 42.4847C217.418 43.9762 216.209 45.1481 214.579 46.0004C212.949 46.842 210.866 47.2628 208.33 47.2628H199.381V43.6832H208.203C209.95 43.6832 211.356 43.4276 212.421 42.9162C213.497 42.4048 214.275 41.6804 214.754 40.7429C215.244 39.7947 215.489 38.6655 215.489 37.3551C215.489 36.0447 215.244 34.8995 214.754 33.9194C214.264 32.9393 213.481 32.1829 212.405 31.6502C211.329 31.1069 209.907 30.8352 208.139 30.8352H201.171V60.0469H197.208ZM212.613 45.3452L220.667 60.0469H216.065L208.139 45.3452H212.613ZM227.335 60.0469H223.18L235.197 27.3196H239.288L251.305 60.0469H247.15L237.37 32.4972H237.115L227.335 60.0469ZM228.869 47.2628H245.616V50.7784H228.869V47.2628ZM256.403 60.0469V27.3196H276.026V30.8352H260.366V41.8935H274.556V45.4091H260.366V60.0469H256.403ZM281.024 30.8352V27.3196H305.569V30.8352H295.278V60.0469H291.315V30.8352H281.024Z" fill="url(#paint0_linear_515_18192)"/>
<path d="M12.1484 26.0469L2.14844 36.5469L12.1484 45.5469M12.1484 45.5469V11.5469H26.1484M12.1484 45.5469L26.1484 60.0469M46.6484 11.5469L71.1484 36.5469L61.1484 45.5469V60.0469H46.6484M46.6484 11.5469H26.1484M46.6484 11.5469L36.6484 2.04688L26.1484 11.5469M26.1484 60.0469L36.6484 70.0469L46.6484 60.0469M26.1484 60.0469H46.6484M51.1484 48.5469V53.5469H23.1484V19.0469H51.1484V24.0469" stroke="url(#paint1_linear_515_18192)" stroke-width="3"/>
<path d="M35.1484 19.0469V53.0469" stroke="url(#paint2_linear_515_18192)" stroke-width="3"/>
<path d="M34.1484 36.0469H45.6484" stroke="url(#paint3_linear_515_18192)" stroke-width="3"/>
<path d="M31.1484 19.5469V31.0469" stroke="url(#paint4_linear_515_18192)" stroke-width="3"/>
<path d="M27.1484 19.0469V47.0469" stroke="url(#paint5_linear_515_18192)" stroke-width="3"/>
<path d="M61.1484 26.5469V46.3945V59.5469" stroke="url(#paint6_linear_515_18192)" stroke-width="3"/>
<path d="M70.6484 36.0469L77.1484 42.0469L90.6484 28.0469H91.6484V60.0469" stroke="url(#paint7_linear_515_18192)" stroke-width="3"/>
<defs>
<linearGradient id="paint0_linear_515_18192" x1="196.148" y1="-16.9531" x2="192.148" y2="84.5469" gradientUnits="userSpaceOnUse">
<stop offset="0.370828" stop-color="#E85EA6"/>
<stop offset="0.978334" stop-color="#C56DDA"/>
</linearGradient>
<linearGradient id="paint1_linear_515_18192" x1="36.6484" y1="2.04687" x2="36.6484" y2="70.0469" gradientUnits="userSpaceOnUse">
<stop offset="0.173073" stop-color="#C16EDF"/>
<stop offset="0.754812" stop-color="#E75DA5"/>
</linearGradient>
<linearGradient id="paint2_linear_515_18192" x1="35.6484" y1="19.0469" x2="35.6484" y2="53.0469" gradientUnits="userSpaceOnUse">
<stop offset="0.173073" stop-color="#C16EDF"/>
<stop offset="0.754812" stop-color="#E75DA5"/>
</linearGradient>
<linearGradient id="paint3_linear_515_18192" x1="39.8984" y1="36.0469" x2="39.8984" y2="37.0469" gradientUnits="userSpaceOnUse">
<stop offset="0.173073" stop-color="#C16EDF"/>
<stop offset="0.754812" stop-color="#E75DA5"/>
</linearGradient>
<linearGradient id="paint4_linear_515_18192" x1="31.6484" y1="19.5469" x2="31.6484" y2="31.0469" gradientUnits="userSpaceOnUse">
<stop offset="0.173073" stop-color="#C16EDF"/>
<stop offset="0.754812" stop-color="#E75DA5"/>
</linearGradient>
<linearGradient id="paint5_linear_515_18192" x1="27.6484" y1="19.0469" x2="27.6484" y2="47.0469" gradientUnits="userSpaceOnUse">
<stop offset="0.173073" stop-color="#C16EDF"/>
<stop offset="0.754812" stop-color="#E75DA5"/>
</linearGradient>
<linearGradient id="paint6_linear_515_18192" x1="61.6484" y1="26.5469" x2="61.6484" y2="59.5469" gradientUnits="userSpaceOnUse">
<stop offset="0.173073" stop-color="#C16EDF"/>
<stop offset="0.754812" stop-color="#E75DA5"/>
</linearGradient>
<linearGradient id="paint7_linear_515_18192" x1="81.1484" y1="28.0469" x2="81.1484" y2="60.0469" gradientUnits="userSpaceOnUse">
<stop stop-color="#DE62B5"/>
<stop offset="1" stop-color="#C16EDF"/>
</linearGradient>
</defs>
</svg>
