<svg width="68" height="67" viewBox="0 0 72 71" fill="none" xmlns="http://www.w3.org/2000/svg">
<path d="M11.4297 25.3633L1.42969 35.8633L11.4297 44.8633M11.4297 44.8633V10.8633H25.4297M11.4297 44.8633L25.4297 59.3633M45.9297 10.8633L70.4297 35.8633L60.4297 44.8633V59.3633H45.9297M45.9297 10.8633H25.4297M45.9297 10.8633L35.9297 1.36328L25.4297 10.8633M25.4297 59.3633L35.9297 69.3633L45.9297 59.3633M25.4297 59.3633H45.9297M50.4297 47.8633V52.8633H22.4297V18.3633H50.4297V23.3633" stroke="url(#paint0_linear_514_18158)" stroke-width="2"/>
<path d="M31.4297 18.3633V52.3633" stroke="url(#paint1_linear_514_18158)" stroke-width="2"/>
<path d="M31.4297 35.3633H42.9297" stroke="url(#paint2_linear_514_18158)" stroke-width="2"/>
<path d="M28.4297 18.8633V30.3633" stroke="url(#paint3_linear_514_18158)" stroke-width="2"/>
<path d="M25.4297 18.3633V46.3633" stroke="url(#paint4_linear_514_18158)" stroke-width="2"/>
<path d="M60.4297 25.8633V45.7109V58.8633" stroke="url(#paint5_linear_514_18158)" stroke-width="2"/>
<defs>
<linearGradient id="paint0_linear_514_18158" x1="35.9297" y1="1.36328" x2="35.9297" y2="69.3633" gradientUnits="userSpaceOnUse">
<stop offset="0.173073" stop-color="#C16EDF"/>
<stop offset="0.754812" stop-color="#E75DA5"/>
</linearGradient>
<linearGradient id="paint1_linear_514_18158" x1="31.9297" y1="18.3633" x2="31.9297" y2="52.3633" gradientUnits="userSpaceOnUse">
<stop offset="0.173073" stop-color="#C16EDF"/>
<stop offset="0.754812" stop-color="#E75DA5"/>
</linearGradient>
<linearGradient id="paint2_linear_514_18158" x1="37.1797" y1="35.3633" x2="37.1797" y2="36.3633" gradientUnits="userSpaceOnUse">
<stop offset="0.173073" stop-color="#C16EDF"/>
<stop offset="0.754812" stop-color="#E75DA5"/>
</linearGradient>
<linearGradient id="paint3_linear_514_18158" x1="28.9297" y1="18.8633" x2="28.9297" y2="30.3633" gradientUnits="userSpaceOnUse">
<stop offset="0.173073" stop-color="#C16EDF"/>
<stop offset="0.754812" stop-color="#E75DA5"/>
</linearGradient>
<linearGradient id="paint4_linear_514_18158" x1="25.9297" y1="18.3633" x2="25.9297" y2="46.3633" gradientUnits="userSpaceOnUse">
<stop offset="0.173073" stop-color="#C16EDF"/>
<stop offset="0.754812" stop-color="#E75DA5"/>
</linearGradient>
<linearGradient id="paint5_linear_514_18158" x1="60.9297" y1="25.8633" x2="60.9297" y2="58.8633" gradientUnits="userSpaceOnUse">
<stop offset="0.173073" stop-color="#C16EDF"/>
<stop offset="0.754812" stop-color="#E75DA5"/>
</linearGradient>
</defs>
</svg>
